<?xml version="1.0" encoding="utf-8"?>
<!-- Generator: Adobe Illustrator 21.0.0, SVG Export Plug-In . SVG Version: 6.00 Build 0)  -->
<svg version="1.1" id="Calque_1" xmlns="http://www.w3.org/2000/svg" xmlns:xlink="http://www.w3.org/1999/xlink" x="0px" y="0px"
	 viewBox="0 0 1242 2208" style="enable-background:new 0 0 1242 2208;" xml:space="preserve">
<style type="text/css">
	.st0{fill:#7ED321;stroke:#7ED321;stroke-width:2;stroke-miterlimit:10;}
	.st1{fill:#FFFFFF;stroke:#7ED321;stroke-width:2;stroke-miterlimit:10;}
</style>
<g>
	<polygon class="st0" points="368,712.4 379.1,734.8 403.8,738.4 385.9,755.8 390.1,780.5 368,768.8 345.9,780.5 350.1,755.8 
		332.2,738.4 356.9,734.8 	"/>
	<polygon class="st1" points="453,712.4 464.1,734.8 488.8,738.4 470.9,755.8 475.1,780.5 453,768.8 430.9,780.5 435.1,755.8 
		417.2,738.4 441.9,734.8 	"/>
	<polygon class="st1" points="538,712.4 549.1,734.8 573.8,738.4 555.9,755.8 560.1,780.5 538,768.8 515.9,780.5 520.1,755.8 
		502.2,738.4 526.9,734.8 	"/>
	<polygon class="st1" points="623,712.4 634.1,734.8 658.8,738.4 640.9,755.8 645.1,780.5 623,768.8 600.9,780.5 605.1,755.8 
		587.2,738.4 611.9,734.8 	"/>
	<polygon class="st1" points="708,712.4 719.1,734.8 743.8,738.4 725.9,755.8 730.1,780.5 708,768.8 685.9,780.5 690.1,755.8 
		672.2,738.4 696.9,734.8 	"/>
	<path class="st0" d="M453,712"/>
	<polyline class="st0" points="453,715.7 453,769 431,780 435,756 417,738 442,735 	"/>
</g>
</svg>
